<?xml version="1.0" encoding="UTF-8"?>
<svg version="1.1" xmlns="http://www.w3.org/2000/svg" width="500" height="500">
<path d="M0 0 C0.77085937 0.53238281 1.54171875 1.06476563 2.3359375 1.61328125 C2.88507813 2.07089844 3.43421875 2.52851563 4 3 C4 3.66 4 4.32 4 5 C4.66 5 5.32 5 6 5 C6 5.66 6 6.32 6 7 C6.66 7 7.32 7 8 7 C8 7.66 8 8.32 8 9 C8.66 9 9.32 9 10 9 C11.83256125 10.99971028 13.51865945 12.99394577 15.1875 15.125 C15.68000244 15.75374023 16.17250488 16.38248047 16.67993164 17.03027344 C21.43197364 23.27923589 24.82786897 29.81041731 28 37 C28.38671875 37.82628906 28.7734375 38.65257812 29.171875 39.50390625 C34.74265942 52.16672775 36.67998588 65.58881801 36.52148438 79.30224609 C36.49999223 81.50079474 36.52146501 83.69607852 36.546875 85.89453125 C36.5983487 112.55605845 25.58326202 136.96138431 7.25 156.1875 C-3.98673187 166.95961968 -25.20541454 182.06006351 -41.69140625 181.98828125 C-44.91745728 180.60724756 -47.35137144 178.50210162 -49.9375 176.1875 C-58.67788575 168.50723846 -65.2806805 164.53122722 -77 165 C-75.9171875 165.83144531 -75.9171875 165.83144531 -74.8125 166.6796875 C-73.884375 167.40414062 -72.95625 168.12859375 -72 168.875 C-71.071875 169.59429687 -70.14375 170.31359375 -69.1875 171.0546875 C-68.465625 171.69664062 -67.74375 172.33859375 -67 173 C-67 173.66 -67 174.32 -67 175 C-66.21109375 175.33837891 -66.21109375 175.33837891 -65.40625 175.68359375 C-62.15804336 177.46061589 -59.37379681 179.74870287 -56.5 182.0625 C-52.84343549 184.98184612 -49.18737347 187.88845846 -45.4140625 190.65625 C-44.85912109 191.06351318 -44.30417969 191.47077637 -43.73242188 191.89038086 C-42.20265858 193.00587199 -40.66786384 194.11445339 -39.1328125 195.22265625 C-38.07707031 196.10244141 -38.07707031 196.10244141 -37 197 C-37 197.66 -37 198.32 -37 199 C-35.88625 199.3403125 -35.88625 199.3403125 -34.75 199.6875 C-31.48860409 201.24407532 -30.07105025 203.08518854 -28 206 C-29.21151542 207.20550294 -30.44502889 208.38892747 -31.6875 209.5625 C-32.37199219 210.22378906 -33.05648437 210.88507813 -33.76171875 211.56640625 C-36 213 -36 213 -38.3046875 213.08203125 C-42.28942824 211.48235997 -45.19158934 208.89432076 -48.4375 206.125 C-49.86631844 204.93385259 -51.29602231 203.74376657 -52.7265625 202.5546875 C-53.44231445 201.95624023 -54.15806641 201.35779297 -54.89550781 200.74121094 C-57.98738547 198.1830588 -61.14502193 195.71344674 -64.3125 193.25 C-68.41510117 190.04654414 -72.48128317 186.8088413 -76.5 183.5 C-80.75890481 179.99935718 -85.05132494 176.5450857 -89.375 173.125 C-89.95830078 172.66029297 -90.54160156 172.19558594 -91.14257812 171.71679688 C-97.1600303 166.97640491 -100.48888221 164.59314623 -108.3125 164.8125 C-109.56675781 164.83957031 -110.82101563 164.86664063 -112.11328125 164.89453125 C-113.06589844 164.92933594 -114.01851562 164.96414063 -115 165 C-113.7625 165.928125 -113.7625 165.928125 -112.5 166.875 C-111.675 167.57625 -110.85 168.2775 -110 169 C-110 169.66 -110 170.32 -110 171 C-108.96746094 171.32097656 -108.96746094 171.32097656 -107.9140625 171.6484375 C-104.13339733 173.40193636 -101.45382279 175.854656 -98.375 178.625 C-93.09442978 183.28564671 -87.73497511 187.50089596 -81.9140625 191.4765625 C-81.28242188 191.97929687 -80.65078125 192.48203125 -80 193 C-80 193.66 -80 194.32 -80 195 C-79.47921875 195.22171875 -78.9584375 195.4434375 -78.421875 195.671875 C-75.0810194 197.5039571 -72.20983171 199.87112536 -69.25 202.25 C-65.25941052 205.43280939 -61.26420066 208.5730773 -57.125 211.5625 C-56.09375 212.366875 -55.0625 213.17125 -54 214 C-54 214.66 -54 215.32 -54 216 C-53.38125 216.309375 -52.7625 216.61875 -52.125 216.9375 C-50.75 217.625 -49.375 218.3125 -48 219 C-48.2304891 222.70099633 -48.86275493 223.86753047 -51.58203125 226.4921875 C-52.64818631 227.30072145 -53.72549696 228.09471919 -54.8125 228.875 C-55.34681641 229.29007813 -55.88113281 229.70515625 -56.43164062 230.1328125 C-60.40465974 233.06492993 -60.40465974 233.06492993 -62.94750977 232.78759766 C-65.32114678 231.87676704 -66.87193654 230.72504023 -68.8203125 229.09375 C-69.87025391 228.22556641 -69.87025391 228.22556641 -70.94140625 227.33984375 C-71.66199219 226.73269531 -72.38257813 226.12554687 -73.125 225.5 C-74.5638287 224.30055165 -76.00387561 223.10256269 -77.4453125 221.90625 C-78.07969238 221.37322266 -78.71407227 220.84019531 -79.36767578 220.29101562 C-80.98206457 218.9239344 -80.98206457 218.9239344 -83 218 C-83 217.34 -83 216.68 -83 216 C-83.72832031 215.75378906 -84.45664063 215.50757813 -85.20703125 215.25390625 C-88.28896422 213.87026921 -90.22773713 212.23856849 -92.6875 209.9375 C-95.61431801 207.13706887 -95.61431801 207.13706887 -99 205 C-99 204.34 -99 203.68 -99 203 C-99.58136719 202.72800781 -100.16273438 202.45601562 -100.76171875 202.17578125 C-102.97896152 201.01105163 -104.83230816 199.71599838 -106.8125 198.1875 C-109.49547763 196.12870479 -112.20828872 194.15833003 -115 192.25 C-116.485 191.13625 -116.485 191.13625 -118 190 C-118 189.34 -118 188.68 -118 188 C-118.80630859 187.64421875 -118.80630859 187.64421875 -119.62890625 187.28125 C-122.64177278 185.65321009 -125.2546508 183.60971156 -127.9375 181.5 C-129.09089481 180.59993865 -130.2445485 179.70020896 -131.3984375 178.80078125 C-131.98979492 178.33881348 -132.58115234 177.8768457 -133.19042969 177.40087891 C-134.98166756 176.01419206 -136.7880635 174.65037522 -138.6015625 173.29296875 C-139.18172119 172.85597656 -139.76187988 172.41898438 -140.35961914 171.96875 C-141.97832439 170.75083385 -143.60040036 169.53740146 -145.22265625 168.32421875 C-149.67341798 164.59960099 -152.16131125 161.76787897 -153 156 C-153.09210239 153.72644958 -153.13054659 151.45047709 -153.13371277 149.17506409 C-153.13597833 148.50123922 -153.13824388 147.82741435 -153.14057809 147.13317055 C-153.14689217 144.88246395 -153.1460904 142.63181797 -153.14526367 140.38110352 C-153.14825674 138.76450523 -153.15165961 137.14790767 -153.15544128 135.53131104 C-153.16426948 131.14497668 -153.16661888 126.75866184 -153.16725707 122.37231946 C-153.16796813 119.63128218 -153.1701035 116.89024984 -153.17275429 114.14921379 C-153.18200311 104.58506836 -153.18608967 95.02093686 -153.18530273 85.45678711 C-153.18470175 76.5437047 -153.19525885 67.63068277 -153.2110464 58.71761566 C-153.22412265 51.06227985 -153.22948661 43.4069638 -153.22884732 35.7516169 C-153.2285924 31.18068339 -153.2314405 26.60980367 -153.24202538 22.0388813 C-153.251708 17.74035949 -153.2517844 13.44194288 -153.24450874 9.14341736 C-153.24346318 7.5672382 -153.24582415 5.99105248 -153.2518692 4.41488457 C-153.25959602 2.26043943 -153.25494 0.10635698 -153.24723816 -2.04808044 C-153.24778293 -3.25282233 -153.24832769 -4.45756422 -153.24888897 -5.69881344 C-152.93625828 -9.84545049 -152.16786036 -13.46054771 -149.625 -16.8125 C-146.12802389 -19.36798254 -142.1201127 -19.14492927 -137.92480469 -19.20532227 C-136.69542175 -19.22526749 -135.46603882 -19.24521271 -134.19940186 -19.26576233 C-132.85689455 -19.28277416 -131.51438554 -19.2996519 -130.171875 -19.31640625 C-128.78102059 -19.33702208 -127.3901718 -19.3580196 -125.99932861 -19.37937927 C-123.07738439 -19.42331385 -120.15541967 -19.46421675 -117.23339844 -19.50268555 C-113.5357158 -19.55137633 -109.83812853 -19.60499856 -106.14054489 -19.66066074 C-102.56767892 -19.71426114 -98.9947799 -19.76547699 -95.421875 -19.81640625 C-94.11708191 -19.83514297 -92.81228882 -19.8538797 -91.46795654 -19.8731842 C-58.48300673 -20.31030098 -27.85731735 -20.22458488 0 0 Z M-107 23 C-107 62.27 -107 101.54 -107 142 C-64.48617294 144.05991159 -64.48617294 144.05991159 -27 127 C-26.28585937 126.36835938 -25.57171875 125.73671875 -24.8359375 125.0859375 C-20.02972854 120.56774107 -16.77601108 115.9699163 -14 110 C-13.44505859 108.80890625 -13.44505859 108.80890625 -12.87890625 107.59375 C-5.64839566 90.85498556 -6.65116168 72.79473181 -12.6875 55.8125 C-18.58220747 42.21448163 -29.5125043 31.84856008 -43 26 C-54.70737256 22.12123259 -65.58362641 21.46248972 -77.8125 21.6875 C-79.42902478 21.69903848 -81.04556315 21.7088095 -82.66210938 21.71679688 C-90.85407961 21.78646824 -98.80302281 22.25482026 -107 23 Z " fill="#1FBBFE" transform="translate(306,159)"/>
<path d="M0 0 C0.33 0.66 0.66 1.32 1 2 C0.21625 2.763125 -0.5675 3.52625 -1.375 4.3125 C-4.07257717 6.90891805 -4.07257717 6.90891805 -6 10 C-7.65 9.67 -9.3 9.34 -11 9 C-9.948125 8.1646875 -9.948125 8.1646875 -8.875 7.3125 C-5.88655739 4.90875268 -2.94059762 2.46189568 0 0 Z " fill="#19B3FB" transform="translate(279,285)"/>
</svg>
